<svg xmlns="http://www.w3.org/2000/svg" viewBox="0 0 512 512" preserveAspectRatio="xMidYMid meet"><path fill="#0b5bac" d="m298 6 2.522.406C349.746 14.435 395.27 38.548 431 73l1.947 1.865c8.636 8.306 16.648 16.763 23.767 26.41a251 251 0 0 0 3.946 5.123c32.445 41.9 48.543 96.148 48.59 148.727l.002 2.102C509.152 322.121 483.984 384.243 439 431l-1.817 1.9c-8.84 9.193-17.897 17.56-28.183 25.1l-1.725 1.287c-8.743 6.517-17.79 12.337-27.275 17.713l-2.095 1.203C321.805 510.127 252.142 517.474 190 501c-27.956-8.027-55.413-19.777-79-37l-1.94-1.413C99.13 455.293 89.83 447.588 81 439l-1.934-1.856c-8.676-8.343-16.688-16.85-23.858-26.525a232 232 0 0 0-3.563-4.63C45.72 398.398 40.71 390.388 36 382l-1.321-2.348C19.653 352.66 9.733 323.53 5 293l-.355-2.174C.681 265.592 1.681 238.09 6 213l.472-2.8C13.634 169.414 31.438 131.42 57 99l1.29-1.646c4.097-5.199 8.329-10.148 13.1-14.745 1.63-1.629 3.084-3.33 4.547-5.109 2.73-3.241 5.73-5.966 8.958-8.703 2.085-1.78 4.09-3.627 6.105-5.484C126.79 31.62 172.232 12.825 219 5l2.368-.402C246.209.613 273.303 1.75 298 6"/><path fill="#b4e703" d="m298 6 2.522.406C349.746 14.435 395.27 38.548 431 73l1.947 1.865c8.636 8.306 16.648 16.763 23.767 26.41a251 251 0 0 0 3.946 5.123c32.445 41.9 48.543 96.148 48.59 148.727l.002 2.102C509.152 322.121 483.984 384.243 439 431l-1.817 1.9c-8.84 9.193-17.897 17.56-28.183 25.1l-1.725 1.287c-8.743 6.517-17.79 12.337-27.275 17.713l-2.095 1.203C321.805 510.127 252.142 517.474 190 501c-27.956-8.027-55.413-19.777-79-37l-1.94-1.413C99.13 455.293 89.83 447.588 81 439l-1.934-1.856c-8.676-8.343-16.688-16.85-23.858-26.525a232 232 0 0 0-3.563-4.63C45.72 398.398 40.71 390.388 36 382l-1.321-2.348C19.653 352.66 9.733 323.53 5 293l-.355-2.174C.681 265.592 1.681 238.09 6 213l.472-2.8C13.634 169.414 31.438 131.42 57 99l1.29-1.646c4.097-5.199 8.329-10.148 13.1-14.745 1.63-1.629 3.084-3.33 4.547-5.109 2.73-3.241 5.73-5.966 8.958-8.703 2.085-1.78 4.09-3.627 6.105-5.484C126.79 31.62 172.232 12.825 219 5l2.368-.402C246.209.613 273.303 1.75 298 6M184 23l-2.49.744C160.227 30.232 139.323 40.401 121 53c-.595.403-1.19.806-1.804 1.22C102.07 65.86 85.052 79.872 72 96q-1.473 1.757-2.95 3.512C57.218 113.694 47.562 128.642 39 145l-1.168 2.216C27.155 167.754 20.202 190.283 16 213l-.492 2.536C10.524 242.231 10.751 272.374 16 299l.586 3.063c8.856 45.047 29.601 86.357 61.247 119.685 1.68 1.803 3.264 3.683 4.855 5.565 3.457 3.97 7.29 7.304 11.312 10.687q1.402 1.23 2.8 2.46c43.663 38.176 100.084 58.747 157.888 58.79l2.477.002c13.822-.018 27.205-.787 40.835-3.252l2.845-.504C347.328 486.99 390.014 464.698 424 432l1.9-1.817c8.66-8.328 16.734-16.808 23.857-26.496a369 369 0 0 1 3.716-4.933C478.45 365.476 493.126 325.114 498 284l.286-2.17c7.513-63.27-12.456-127.49-51.473-177.267-3.402-4.156-6.968-8.154-10.59-12.118-2.133-2.347-4.21-4.735-6.286-7.132-3.701-4.16-7.676-7.74-11.937-11.313a1161 1161 0 0 1-2.797-2.457C382.261 42.74 341.93 23.939 299 16l-2.536-.492C259.569 8.62 219.713 12.106 184 23"/><path fill="#fddc01" d="M372 229c3.556 3.293 5.798 5.986 7.75 10.5l1.234 2.781c3.186 8.527 3.068 17.095-.668 25.399-4.737 8.35-12.435 12.423-21.332 15.293-8.423 2.145-16.385 2.216-25.052 1.565-2.475-.109-4.538-.184-6.932.462-1.149 1.728-1.401 3.12-1.71 5.165-.812 5.136-5.747 9.61-9.645 12.706-7.908 5.38-15.285 6.078-24.645 5.129-4.873-1.007-9.555-2.778-14-5 1.872 8.91 6.934 15.654 14.531 20.672 7.746 4.064 15.271 5.686 23.969 5.578l2.328-.012c7.807-.115 15.462-1.062 23.172-2.238-2.56 3.01-5.654 4.47-9.187 6.063l-1.635.775c-11.581 5.306-25.53 6.299-37.74 2.537-11.544-4.525-21.13-12.76-26.708-23.914-3.488-8.554-4.25-16.967-1.168-25.774 3.334-7.26 8.547-12.098 15.977-15.027 5.88-1.577 11.955-1.818 17.461 1.027 2.925 2.004 4.716 3.942 6 7.313-.068 3.415-.365 5.238-2.562 7.875-3.449 1.592-6.742 2.308-10.438 1.125-1.348-2.236-1.603-4.454-2-7-1.507-1.507-2.846-1.205-4.937-1.25l-2.153-.078c-1.976.149-1.976.149-3.168 1.598-1.394 3.25-.787 6.428.258 9.73 3.66 3.756 7.005 5.14 12.188 5.25 5.377-.087 10.3-.969 14.386-4.68 4.777-5.502 4.855-11.121 4.696-18.117-.438-5.605-2.035-8.332-6.036-12.129-7.327-6.044-14.938-7.066-24.234-6.324a98 98 0 0 0-9 2c2.899-3.207 5.546-4.966 9.5-6.687l2.844-1.262c8.93-3.533 18.265-2.96 27.113.601 3.408 1.806 6.057 4.06 8.79 6.762 1.927 1.744 3.254 2.827 5.753 3.586 2.747-.816 2.747-.816 5.5-2.312 4.974-2.494 8.874-3.736 14.422-4.083l2.86-.209q2.943-.207 5.89-.382c5.944-.457 11.517-1.215 16.328-5.014 1.71-2.692 2.246-4.725 2.195-7.89l-.02-2.15-.05-2.21-.027-2.258c-.024-1.83-.06-3.661-.098-5.492"/><path fill="#fcc30a" d="M137 229c.988 3.237 1.017 6.007.875 9.375-.013 4.882.041 7.77 3.125 11.625 5.89 3.264 12.233 3.553 18.813 3.938 9.044.672 17.19 1.48 24.765 6.91L187 262c1.825-1.265 1.825-1.265 3.188-3.5 4.49-5.762 10.622-9.125 17.812-10.5 10.943-1.005 21.23 1.18 30 8-3 1-3 1-5.062.563-9.848-1.886-18.29.072-26.875 5.187-5.378 5.866-6.734 11.424-6.454 19.34.698 5.197 2.567 9.086 6.266 12.785 6.119 3.24 12.426 4.344 19.188 2.59 2.726-1.04 4.51-1.945 6.375-4.215.845-3.382 1.009-5.741.562-9.25-2.017-2.26-2.017-2.26-5-3-3.262.17-3.262.17-6 2-.591 1.72-.591 1.72-.875 3.625-.375 1.875-.375 1.875-1.125 3.375-3.697 1.188-7.01.42-10.5-1.062-1.807-2.334-2.125-4.157-1.957-7.094 1-4.034 3.834-6.827 7.277-8.985 5.33-2.1 11.586-1.67 16.977.016 7.632 3.515 12.415 8.48 15.594 16.207 1.028 3.239 1.099 6.354 1.047 9.73l-.028 2.126c-.384 11.595-5.998 19.958-14.285 27.847-11.55 9.41-25.7 11.619-40.125 10.215-8.574-1.644-16.665-5.329-24-10 3.393-1.128 5.66-.818 9.125-.062 15.13 2.703 30.415 2.306 43.652-6.211 6.25-4.855 9.38-11.503 12.223-18.727-.837.36-1.673.722-2.535 1.094-10.16 4.145-20.943 6.552-31.528 2.219-2.085-1.13-2.085-1.13-3.937-2.313l-1.664-1.027c-5.522-3.98-9.216-10.614-11.336-16.973-1.865-.447-1.865-.447-4.129-.371l-2.614-.044-2.82-.022c-14.982-.435-29.944-2.51-40.875-13.813-5.296-6.876-6.14-14.435-5.136-22.863 1.48-7.445 5.42-13.638 9.574-19.887"/><path fill="#faac17" d="M252.72 84.57c3.809-.477 5.873-.363 9.28 1.43 1.807 4.686 1.187 9.548.89 14.473a524 524 0 0 0-.108 4.446 542 542 0 0 1-.424 11.734c-.28 6.265-.501 12.529-.65 18.798-.067 2.203-.185 4.4-.307 6.6-.132 3.41-.243 6.613.599 9.949 2.427 1.256 3.621.998 6.207.203 2.19-1.167 2.19-1.167 2.495-4.53a95 95 0 0 0-.378-4.427q-.13-2.387-.256-4.775-.269-3.79-.61-7.572c-.84-10.008-.84-10.008.542-14.899 3.558-2.089 6.06-2.568 10.09-1.707C283 116 283 116 283.96 119.35c.243 4.73-.175 9.44-.584 14.151-.185 2.496-.352 4.99-.478 7.49q-.122 2.34-.357 4.674c-.225 2.318-.225 2.318.46 5.336 3.117.537 3.117.537 5.242.187 2.48-.264 3.988.56 6.133 1.75l2.023 1.09C298 155 298 155 299 156c.609 3.121.498 5.183-1.176 7.93-12.48 15.309-36.015 22.492-54.995 24.907-3.753.335-7.5.39-11.266.413l-2.448.063c-5.513.035-10.188-.732-15.115-3.313-2-2-2-2-2.5-5.187.143-4.06 1.84-6.219 4.574-9.102C224.754 164 224.754 164 229 164c.205-1.948.205-1.948.02-4.406l-.127-2.912-.155-3.182q-.103-3.281-.197-6.562c-.105-3.48-.23-6.954-.412-10.43-.786-15.554-.786-15.554.871-20.508 1.952-2.06 3.656-2.627 6.46-2.781 2.752.24 4.527.86 6.54 2.781 2.598 6.22 1.523 13.919 1.313 20.5q-.026 2.962-.034 5.926c-.025 4.86-.124 9.716-.279 14.574 3.054-.487 3.054-.487 6-2 .591-2.49.704-4.066.583-6.561-.01-.673-.018-1.347-.027-2.04a257 257 0 0 0-.103-4.389c-.07-2.311-.099-4.62-.115-6.931-.052-6.571-.17-13.14-.34-19.709a517 517 0 0 1-.155-12.047q-.023-2.304-.114-4.606c-.46-11.807-.46-11.807 3.991-14.148"/><path fill="#fdd701" d="M252 316h1c.353 3.048.326 6.122.375 9.188l.113 2.619c.088 6.36.088 6.36-1.608 8.814-1.243 1.182-2.559 2.286-3.88 3.379-.683 3.718-.513 5.25 1.625 8.375 3.07 2.1 4.72 2.158 8.375 1.625 2.5-.833 2.5-.833 4-3 .577-2.772.717-5.254 0-8l-2.016-1.676c-3.05-3.573-2.418-7.04-2.234-11.574l.055-2.547q.07-3.102.195-6.203l1.742 2.195C270.165 332.2 279.921 339.348 296 344c-2.657 2.144-5.355 3.739-8.416 5.243-15.338 7.63-24.661 19.11-30.164 35.338-.483 1.47-.953 2.944-1.42 4.419-1.42-2.06-2.636-4.145-3.777-6.371C247.229 373.15 241.697 365.444 234 358l-1.867-1.86c-4.107-3.811-8.81-6.295-13.778-8.843C216 346 216 346 214 344l2.422-.848c14.642-5.279 25.984-11.928 34.414-25.43z"/><path fill="#fbfdfe" d="m211 406 2.203.098c1.922.277 1.922.277 4.797 1.902.613 3.397.397 6.586 0 10l-1.652-.473c-5.67-1.463-10.595-1.798-16.348-.527-1.216 1.045-1.216 1.045-1.562 3.25.272 2.761.272 2.761 2.03 4.016 2.9 1.817 5.895 3.402 8.927 4.984 8.13 4.314 8.13 4.314 10.605 8.75 1.491 4.933 1.267 8.861-1.05 13.465-2.564 4.145-5.356 6.106-9.95 7.535-2.984.285-5.942.28-8.937.25l-2.381.023c-8.648-.029-8.648-.029-12.682-2.273-.586-2.82-.586-2.82-.375-6.125l.164-3.32L185 445l1.582.875c6.195 3.124 11.518 3.844 18.418 3.125l2-1c.856-2.845.856-2.845 0-6-2.49-2.033-5.33-3.25-8.25-4.562-9.78-4.534-9.78-4.534-12.75-9.438-1.568-4.85-1.527-9.847.785-14.43 2.908-3.759 7.168-5.87 11.59-7.382 4.232-.303 8.386-.405 12.625-.188"/><path fill="#fcfdfe" d="m317 406 2.262.066c1.925.247 1.925.247 4.738 1.934.609 3.725.394 7.259 0 11l-1.836-.691C316.182 416.256 310.153 414.7 304 417c-1.419 2.861-1.419 2.861 0 6 2.364 1.681 4.394 2.795 7 4 12.12 5.82 12.12 5.82 14.48 11.078 1.317 4.871 1.564 9.738-.98 14.235-3.23 3.904-7.765 6.26-12.757 7.039-2.323.11-4.606.097-6.93.023l-2.366-.004c-8.116-.124-8.116-.124-11.447-2.371-.488-2.602-.488-2.602-.312-5.625l.136-3.04L291 446l2.313.938c3.944 1.559 6.957 2.221 11.187 2.25l2.906.042c3.249-.228 3.249-.228 5.594-2.23.37-2.466.37-2.466-1-5-2.42-1.873-5.083-3.194-7.812-4.562C292.87 431.613 292.87 431.613 291 426c-.411-4.222-.475-7.874 1.188-11.812 6.837-8.252 14.72-8.794 24.812-8.188"/><path fill="#fbfcfd" d="M86.313 149.688C90.175 152.627 92.47 156.41 94 161c.583 5.945-.656 10.032-4 15-3.995 3.795-7.789 6.283-13.375 6.313-4.881-.137-8.392-1.21-12.031-4.637-3.352-3.713-5.479-7.417-5.66-12.551.359-5.576 2.54-9.84 6.066-14.125 6.217-4.7 14.505-5.47 21.313-1.312"/><path fill="#fefefe" d="M225.58 406.035c2.433-.383 4.707-.42 7.17-.363l2.69-.03a220 220 0 0 1 5.65.054c2.902.054 5.79.001 8.691-.063q2.734.01 5.469.039l2.651-.061c4.088.16 4.088.16 6.099 1.389 1.177 3.518 1.227 6.489 0 10-2.806.219-4.334-.036-6.992-.688-2.883-.368-4.113-.202-7.008.688-2.5 6.195-.701 14.527-.125 21 1.43 16.729 1.43 16.729.125 21-2.667 2.05-2.667 2.05-6 2.625-3.333-.574-3.333-.574-6-2.625-2.247-7.354-.272-16.536.397-24.056 1.12-9.101 1.12-9.101-.397-17.944-3.475-1.068-5.542-1.047-9.026-.193-1.916.431-1.916.431-4.974.193-1.249-3.575-2.097-8.72 1.58-10.965"/><path fill="#fbb613" d="M192 214h2l-.812 2-1.188 3-.8 1.656c-2.917 6.524-3.665 14.47-1.59 21.371 1.096 2.2 2.5 4.122 3.952 6.098L194 250a42 42 0 0 1-6 4l-1.453 1.262L185 256c-1.848-.863-1.848-.863-4.062-2.312-6.934-3.79-14.242-3.506-21.99-3.562-2.112-.137-3.945-.434-5.948-1.126-.233-4.606 1.902-9.913 4.633-13.55 6.136-6.506 13.825-10.483 21.804-14.262q2.939-1.411 5.872-2.833l2.587-1.23c2.238-1.066 2.238-1.066 4.104-3.125"/><path fill="#fdcf01" d="m316 213 2.465 1.434 3.473 2.004 1.875 1.083a236 236 0 0 0 10.656 5.768c18.584 9.419 18.584 9.419 22.12 19.816.46 2.119.784 3.746.411 5.895-2.611.881-5.087 1.136-7.828 1.21-12.287.404-12.287.404-23.422 5.227L324 256c-2-1.687-2-1.687-4-4l-2.562-1.25L316 249c.996-2.193 2.248-4.021 3.668-5.965 2.58-3.942 2.968-8.42 2.332-13.035-.86-2.806-1.859-5.521-2.93-8.254-1.126-2.89-2.109-5.797-3.07-8.746"/><path fill="#feca05" d="M260.23 186.595 262 187c.437 2.285.546 4.12.518 6.422l.02 2.07c.019 2.276.007 4.552-.007 6.828q.004 2.367.012 4.733.008 4.975-.022 9.952c-.022 4.244-.01 8.487.015 12.73.014 3.264.01 6.527 0 9.79q-.005 2.346.01 4.692c.01 2.195-.006 4.389-.028 6.584l.024 1.947c-.093 5.004-1.617 7.394-4.542 11.252a86 86 0 0 0-2 4l-.75-1.625c-1.244-2.518-1.244-2.518-3.292-5.087-2.215-3.314-2.55-6.348-2.54-10.271-.012-.671-.026-1.342-.04-2.033a434 434 0 0 1-.05-6.593l-.04-4.601q-.035-4.806-.03-9.613c.001-4.112-.054-8.222-.122-12.334a645 645 0 0 1-.05-9.486 264 264 0 0 0-.054-4.55c-.081-4.385-.133-8.543.968-12.807 3.216-2.591 6.411-1.711 10.23-2.405"/><path fill="#fec906" d="M283 178c.157 2.028.243 4.023.288 6.055l.054 1.951c.155 5.963.242 11.926.31 17.89.046 4.01.114 8.017.233 12.026.115 3.871.175 7.74.198 11.613q.026 2.212.11 4.422c.167 4.572.184 8.652-1.193 13.043-3.332 3.042-6.763 4.554-11 6l-2 1c-.278-8.762-.491-17.522-.622-26.287a675 675 0 0 0-.283-12.208c-.131-3.93-.202-7.856-.234-11.787a157 157 0 0 0-.13-4.49c-.194-4.667-.231-8.77 1.269-13.228 3.03-3.078 8.602-6 13-6"/><path fill="#fdcd03" d="M296 191c1 2 1 2 .813 5.125-.024 5.769 2.418 9.964 6.28 14.137a560 560 0 0 0 4.72 4.578c5.317 5.25 9.11 10.702 9.218 18.355-.32 4.713-1.52 8.57-3.605 12.785L312 247c-1.387-.448-2.77-.912-4.125-1.447-3.803-1.122-7.82-.755-11.75-.678l-2.664.027q-3.23.036-6.461.098l1.277-1.504 1.66-2.059c.546-.66 1.091-1.322 1.653-2.003 2.1-3.623 2.922-7.134 2.012-11.223-.618-1.85-1.313-3.651-2.04-5.461-3.12-8.56-4.202-16.405-.496-25.023 1.377-2.546 2.992-4.584 4.934-6.727"/><path fill="#fcbe0f" d="M214 192c4.222 3.785 7.018 7.81 7.434 13.516q.033 1.867.004 3.734l-.01 1.995c-.143 5.046-1.404 8.902-3.514 13.493-1.547 3.827-1.877 7.242-.914 11.262 1.712 3.245 3.72 6.13 6 9-.544-.01-1.088-.02-1.649-.032-2.492-.042-4.984-.067-7.476-.093l-2.594-.05c-5.498-.049-5.498-.049-10.75 1.382L198 247c-3.108-2.485-3.848-6.926-4.383-10.707-.35-8.336 1.663-13.367 7.215-19.465a224 224 0 0 1 4.839-5.085c4.548-4.673 7.507-8.896 8.017-15.618l.199-2.367z"/><path fill="#fbfcfd" d="M444 147c1.96 1.737 1.96 1.737 3 4-1.493 2.56-4.117 3.67-6.633 5.094l-1.91 1.084L437 158l3.43.664q2.223.479 4.445.961l2.262.426c2.125.478 3.93.94 5.863 1.949 1.508 3.148 1.508 3.148 2 6l-1.51-.685c-8.01-3.451-8.01-3.451-16.49-3.315-5.086 5.197-7.053 13.16-9 20a2533.278 2533.278 0 0 1 13.025 1.172q2.214.202 4.429.395c2.125.186 4.25.383 6.374.581l1.992.168c3.466.335 6.19.86 9.18 2.684a5684 5684 0 0 1-8.752 8.807q-1.49 1.497-2.974 2.995-2.142 2.16-4.29 4.311l-1.329 1.345c-2.41 2.41-4.804 4.664-7.655 6.542h-2c-1-2.187-1-2.187-1-5 1.383-1.094 1.383-1.094 3.125-2.187 1.763-1.134 1.763-1.134 2.875-2.813-.305-2.798-1.107-5.08-2.133-7.695C438 193 438 193 438 190c-2.031-.232-3.924.01-5.957.188C430 190 430 190 428.371 188.734c-2.709-3.426-4.22-6.293-4.371-10.734 1.44-4.782 3.888-9.191 6.31-13.539.832-1.493.832-1.493.69-3.461l-2.773 1.488q-1.8.915-3.602 1.825l-1.828.994c-1.758.869-1.758.869-4.797 1.693-1.554-2.204-1.554-2.204-2-5 1.976-1.729 3.527-2.731 5.824-3.91l1.87-1.016q1.968-1.057 3.953-2.08a258 258 0 0 0 6.039-3.258q1.91-1.014 3.826-2.021l1.828-1.01c1.717-.861 1.717-.861 4.66-1.705"/><path fill="#fec409" d="M236.929 190.51c1.903-.406 1.903-.406 5.071.49 1.113 4.385.808 8.856.684 13.344a928 928 0 0 0-.03 4.103 775 775 0 0 1-.173 10.83c-.072 3.68-.104 7.36-.14 11.04-.074 7.228-.194 14.455-.341 21.683-11.976-4.723-11.976-4.723-14.203-9.676-.403-3.252-.419-6.292-.277-9.566q.013-1.764.012-3.528c.013-2.452.068-4.897.158-7.347.114-3.146.143-6.285.144-9.433a412 412 0 0 1 .09-7.262c.033-1.724.048-3.449.063-5.174.112-2.805.243-5.314 1.013-8.014 2.894-1.338 4.959-.735 7.929-1.49"/><path fill="#fbb812" d="M129 278a200 200 0 0 1 7.398 3.84c9.673 5.158 19.391 9.826 30.633 8.906 3.857-.31 7.155-.555 10.969.254 2.89 3.683 3.772 7.55 5 12 1.51 2.801 1.51 2.801 3 5-19.795.638-19.795.638-29-3l-2.535-.996C142.77 298.78 135.279 289.804 129 279z"/><path fill="#fdda00" d="M380 278c0 6.326-6.124 12.282-10.312 16.75-6.425 6.094-14.152 10.049-22.688 12.25l-2.18.57c-4.05.617-8.043.534-12.132.493l-2.534-.014q-3.077-.018-6.154-.049l1.242-1.941 1.633-2.622 1.617-2.566c1.318-2.509 1.755-4.004 2.25-6.695L332 291c2.776-.501 4.514-.525 7.25-.25q2.19.105 4.383.176l2.227.073c12.154.008 24.764-5.498 34.14-12.999"/><path fill="#fff" d="M273.495 405.902c3.354-.362 5.41-.264 8.505 1.098 1.852 3.628 1.54 7.372 1.46 11.375l.033 3.498c.016 2.45-.008 4.895-.059 7.344-.063 3.151-.027 6.292.04 9.443.049 2.99.014 5.976-.013 8.965l.067 3.447c-.175 5.278-.175 5.278-1.528 7.928-3.094 1.362-5.15 1.46-8.505 1.098C271 459 271 459 269.947 456.937c-.43-3.146-.47-6.136-.408-9.312l-.032-3.498c-.016-2.45.008-4.895.059-7.344.063-3.151.027-6.292-.04-9.443-.049-2.99-.014-5.976.013-8.965l-.067-3.447c.245-7.363.245-7.363 4.023-9.026"/><path fill="#1c449c" d="M81 153c3.446 1.763 5.453 4.096 7.438 7.375 1.032 4.817.416 8.253-2.188 12.438-2.468 2.399-3.904 3.409-7.25 4.187-5.116-.093-8.024-1.114-11.773-4.613C65.41 170.333 64.588 168.68 64 166c.274-4.39 1.36-7.479 4-11 4.195-2.55 8.213-2.813 13-2"/><path fill="#fbfcfd" d="M205.927 43.548 208 44c.991 2.152 1.603 3.966 2.176 6.238l.528 1.93q.548 2.025 1.07 4.057a396 396 0 0 0 1.665 6.203q.527 1.967 1.05 3.935l.507 1.876c.802 3.157 1.06 4.592.004 7.761-2.09-.808-3.823-1.688-5.75-2.805l-1.737-.961A581 581 0 0 1 202 69.125a1112 1112 0 0 0-5.513-3.087 335 335 0 0 1-3.435-1.94A83 83 0 0 0 189 62l-1 1c.592 2.464 1.234 4.88 1.938 7.313 2.655 9.21 2.655 9.21 2.062 11.687-1.927.832-1.927.832-4 1-.933-1.469-.933-1.469-1.547-3.723l-.72-2.52L185 74l-.81-2.777a585 585 0 0 1-2.44-8.66l-.852-3.006-.789-2.866-.72-2.587C179 52 179 52 180 50c2.269.935 2.269.935 5.242 2.578l1.589.869c1.686.925 3.365 1.864 5.044 2.803q1.689.93 3.379 1.855c8.82 4.856 8.82 4.856 11.746 6.895l-.367-1.836q-.528-2.639-1.051-5.277a465 465 0 0 0-1.195-5.742c-.19-.894-.38-1.787-.574-2.707-.27-1.24-.27-1.24-.543-2.504L203 45c1-1 1-1 2.927-1.452"/><path fill="#074ca1" d="M365 134v2c2.295.168 2.295.168 5.145-.059l3.24-.17 3.428-.208q3.321-.194 6.644-.372l3-.181C389 135 389 135 392 136v2c1.728 0 3.457-.007 5.184-.066 2.305.084 3.823.959 5.816 2.066l2-1c3.05-.398 5.964-.538 9 0 1.313 2.438 1.313 2.438 2 5 2.041.887 2.041.887 4 1-2.316 1.765-2.913 2-6 2l-1-2c-2.042-.246-2.042-.246-4.473-.125-.899.015-1.798.03-2.724.047l-2.865.078q-2.799.076-5.598.125l-2.52.07L393 145v-2l3-1-1.742.007q-9.052.032-18.107.048-3.369.008-6.738.02c-3.247.013-6.494.018-9.741.023l-2.994.015c-6.937 0-13.775-.442-20.678-1.113 2.719-2.124 4.623-3.295 8-4a344 344 0 0 0 3.438-1.562c5.525-2.14 11.726-2.123 17.562-1.438"/><path fill="#fce701" d="M325 310c2.264 1.32 3.737 2.696 5 5 .125 3.063.125 3.063-1 6-4.532 4.532-8.41 5.152-14.625 5.25-9.824-.12-17.793-2.909-25.375-9.25a70 70 0 0 1-3-4l2.516.48c9.427 1.556 18.652 1.513 27.375-2.57 3.383-1.46 5.466-1.553 9.109-.91"/><path fill="#fdc707" d="M192 310c1.466.65 2.923 1.32 4.375 2 7.671 3.3 16.99 2.962 25.11 1.355L224 313v2c-8.512 8.118-18.671 11.32-30.203 11.227-4.941-.4-9.261-1.691-12.797-5.227-.35-2.701-.559-4.413 0-7 3.38-3.877 5.97-4.76 11-4"/><path fill="#094ba0" d="M92 372h1c.408 2.336.756 4.65 1.063 7l.275 2.023q.336 2.488.662 4.977l2-3 .025 1.454q.13 7.495.292 14.989.059 2.796.105 5.593c.046 2.68.104 5.361.164 8.042l.035 2.523c.102 4.027.276 6.867 2.379 10.399.113 2.984.047 5.889-.078 8.867-.093 3.603.116 6.067 2.078 9.133q-1.939-1.435-3.875-2.875l-2.18-1.617C94 438 94 438 92 436c.094-2.82.094-2.82.5-6.125.438-3.186.438-3.186.5-5.875h-2c-1.52-3.715-1.144-7.932-1.133-11.879l-.003-2.325q0-2.438.006-4.874.005-3.677-.007-7.354C89.855 379.812 89.855 379.812 91 373z"/><path fill="#fcfcfd" d="M57.5 183.938c3.183.732 5.506 1.877 7.75 4.269 1.107 2.645.341 4.589-.25 7.356-.627 2.855-.627 2.855 0 5.437 2.86 1.434 5.282 2.17 8.414 2.698 1.805.325 1.805.325 4.586 1.302.348 2.688.348 2.688-1 5-2.644-.184-4.563-.6-7.062-1.375l-2.13-.627q-2.243-.663-4.478-1.345c-2.353-.66-4.692-1.14-7.092-1.594-4.191-.877-7.635-1.678-11.238-4.059-.452-4.871 1.202-9.02 4-13 4.864-4.688 4.864-4.688 8.5-4.062"/><path fill="#fafbfd" d="M346 57c.09 2.706.115 5.387.098 8.094l-.005 2.488c-.005 2.64-.018 5.279-.03 7.918q-.009 2.674-.014 5.348Q346.03 87.424 346 94c-2.49-.858-2.49-.858-5-2-.172-2.277-.172-2.277.25-4.937.261-2.663.261-2.663-.25-5.063-2.796-1.918-5.7-2.413-9-3l-3-1c-1.202 1.3-2.403 2.6-3.594 3.91C324 83 324 83 320.687 82.938c-.886-.31-1.773-.62-2.687-.938v-2a85 85 0 0 1 4.75-3.937c4.932-3.912 9.595-8.042 14.188-12.344C344.142 57 344.142 57 346 57"/><path fill="#fbfcfd" d="M168 57q-.432 2.5-.875 5l-.512 3.031c-.548 2.652-1.346 4.947-2.3 7.469-.596 1.852-.596 1.852-.313 3.5 1.988 1.306 3.884 1.734 6.195 2.281 3.161.81 5.914 2.026 8.868 3.406l2.847 1.325L184 84c-2.052 2.248-3.007 3.002-6 4-1.901-.62-1.901-.62-4.012-1.652l-2.295-1.104-2.38-1.181-2.417-1.17Q163.942 81.459 161 80l1.488 2.992q.915 1.94 1.825 3.883l.994 1.973c.869 1.894.869 1.894 1.693 5.152-2.016 2-2.016 2-5 2-2.257-2.638-3.593-5.75-5.062-8.875l-1.276-2.57a372 372 0 0 1-2.471-5.093c-1.439-2.974-2.998-5.879-4.587-8.775C148 69 148 69 149 66c1.89-.996 1.89-.996 4-1 1.484 2.09 1.484 2.09 2.75 4.938l1.297 2.84L158 75l.734-3.176 1.016-4.136.477-2.092c.824-3.283 1.33-5.16 3.789-7.576C166 57 166 57 168 57"/><path fill="#fbfcfd" d="M444 147c1.96 1.737 1.96 1.737 3 4-1.493 2.56-4.117 3.67-6.633 5.094l-1.91 1.084L437 158l3.43.664q2.223.479 4.445.961l2.262.426c2.125.478 3.93.94 5.863 1.949 1.508 3.148 1.508 3.148 2 6-.503-.215-1.007-.43-1.525-.653-8.015-3.3-8.015-3.3-16.475-3.347-4.245 4.169-5.727 10.564-7.21 16.17L429 182l-3 1c-1.398-1.957-1.398-1.957-2-5 .771-2.745 2.048-5.172 3.375-7.687a996 996 0 0 0 2.023-4.012l.928-1.776c.809-1.552.809-1.552.674-3.525l-2.773 1.488q-1.8.915-3.602 1.825l-1.828.994c-1.758.869-1.758.869-4.797 1.693-1.554-2.204-1.554-2.204-2-5 1.976-1.729 3.527-2.731 5.824-3.91l1.87-1.016q1.968-1.057 3.953-2.08a258 258 0 0 0 6.039-3.258q1.91-1.014 3.826-2.021l1.828-1.01c1.717-.861 1.717-.861 4.66-1.705"/><path fill="#fdfdfe" d="M256.125 37.875 259 38q-1.341 1.815-2.687 3.625l-1.637 2.215c-1.474 1.9-3.025 3.605-4.676 5.347L248 52c1.083 4.304 3.487 6.898 6.5 10.063 2.71 2.855 4.952 5.295 6.5 8.937-2.726.413-4.37.628-7 0-2.608-2.154-4.472-4.763-6.437-7.5l-1.64-2.168A300 300 0 0 1 242 56l-.043 3.281q-.07 2.11-.144 4.219l-.018 2.168c-.088 2.05-.088 2.05-.795 5.332-2.503.643-2.503.643-5 0-.559-2.537-.701-4.439-.664-7l-.015-2.152q-.005-2.26.027-4.52c.027-2.32 0-4.634-.032-6.953q.005-2.187.02-4.375l-.03-2.121c.047-1.941.047-1.941.694-4.879 2.497-.602 2.497-.602 5 0 .707 2.625.707 2.625.813 6l.144 3.375L242 51l1.898-2.336 2.477-3.039 1.25-1.54c4.951-6.068 4.951-6.068 8.5-6.21"/><path fill="#fbfcfd" d="M139.309 73.652 141 75c-1.205 3.616-1.93 3.704-5.187 5.375-2.16 1.195-2.16 1.195-3.813 2.625-.003 2.91-.003 2.91 2 5 4.346.706 6.817-1.692 10.195-4.102L146 83c2 2 2 2 2 5-2.11 1.36-2.11 1.36-4.75 2.75-2.492 1.428-2.492 1.428-4.25 3.25.29 3.013 1.767 5.014 4 7 3.457 0 3.89-.504 6.438-2.625 1.84-1.383 1.84-1.383 3.562-2.375 2.5.5 2.5.5 4 2-1.381 4.144-3.845 5.472-7.312 7.938l-1.764 1.36-1.725 1.23-1.567 1.148L143 110c-4.486-3.649-7.67-8.728-10.985-13.427a165 165 0 0 0-2.203-3.016c-2.272-3.042-4.41-6-5.812-9.557 1.735-2.85 2.319-3.432 5-5l2.098-1.871 1.964-1.567 1.973-1.62C137 73 137 73 139.31 73.651"/><path fill="#fbfcfd" d="M404 95c2.29 1.672 3.754 3.455 5 6 .313 3.375.313 3.375 0 6-2.437-.187-2.437-.187-5-1l-1-5c-2.453-.99-2.453-.99-5-1l-1 1c.067 1.838.067 1.838.375 4l.285 2.453q.332 2.493.774 4.969c.939 5.77.939 5.77-.192 8.219-2.498 3.22-4.443 4.25-8.43 4.796-4.143-.069-6.483-1.863-9.43-4.644-2.265-2.938-2.382-5.115-2.382-8.793l1-2c2.563.063 2.563.063 5 1 .125 2.375.125 2.375 0 5 1.02 1.937 1.02 1.937 3 3 3.125.25 3.125.25 6 0l-.402-1.871A420 420 0 0 1 391 109l-.496-2.492c-.918-5.62-.918-5.62.258-8.145C394.52 93.486 398.409 93.268 404 95"/><path fill="#fafbfd" d="M296 41c2.377 1.08 3.252 1.96 5 4v3c-1.75.875-1.75.875-4 1a499 499 0 0 1-4-3c-2.719-.755-2.719-.755-5 0-.42 2.796-.307 3.551 1 6 2.206 2.265 4.52 4.267 6.969 6.266 2.609 2.227 2.977 3.123 3.281 6.547-.287 3.654-.96 5.343-3.25 8.187-3.645 2.29-6.93 2.267-11.062 1.61-3.403-1.07-4.817-2.76-6.938-5.61-.562-2.25-.562-2.25 0-4 1.688-1.062 1.688-1.062 4-1 1.251 1.283 2.5 2.57 3.7 3.902 1.367 1.387 1.367 1.387 4.05 1.16 2.34-.861 2.34-.861 3.375-2.812-.165-2.966-1.51-4.078-3.648-6.02a192 192 0 0 0-4.227-3.417c-2.318-1.868-3.103-2.7-3.488-5.618-.124-3.447-.074-5.627 1.613-8.695 4.099-2.342 8.023-2.25 12.625-1.5"/><path fill="#fbfbfd" d="M116 88c2.5 1.5 2.5 1.5 4 4-1.625 2.25-1.625 2.25-4 4h-2a652 652 0 0 0 3.875 4.875l1.196 1.496c2.158 2.645 4.365 5.113 6.859 7.445l1.426 1.339q1.382 1.272 2.808 2.495c1.258 1.159 1.258 1.159 2.836 3.35-.984 2.41-.984 2.41-3 4-3.184-1.142-5.108-2.926-7.348-5.406l-1.834-2.004-1.88-2.09a1322 1322 0 0 0-3.723-4.094l-1.653-1.834c-1.455-1.464-2.729-2.622-4.562-3.572-1.756 1.217-3.042 2.67-4.5 4.227L103 107c-2.035-1.508-2.035-1.508-3-4 1.8-2.182 3.4-3.734 5.563-5.5q1.659-1.42 3.316-2.844l1.627-1.353c1.686-1.423 1.686-1.423 3.74-3.74z"/><path fill="#fafbfd" d="M361 65c2.29.772 3.718 1.545 5.688 2.875l1.623 1.034q1.614 1.038 3.208 2.104c1.268.845 2.564 1.649 3.864 2.444C378.979 75.75 378.979 75.75 380 77c-.187 2.184-.187 2.184-1 4-2.735-.74-4.825-1.885-7.187-3.437L370 77a91 91 0 0 0-2 5c-1.676 3.194-3.527 6.278-5.375 9.375l-1.46 2.559c-.713 1.189-.713 1.189-1.438 2.402l-1.295 2.205L357 100c-2.975-.212-3.865-.865-6-3 1.042-2.215 1.042-2.215 2.832-4.937l.943-1.457A514 514 0 0 1 357.813 86q1.504-2.302 3.005-4.606a916 916 0 0 1 2.752-4.18c1.436-2.134 1.436-2.134 2.43-4.214-2.343-1.12-2.343-1.12-5-2l-2-1c.52-2.742.52-2.742 2-5"/><path fill="#fbfcfd" d="M308 45c2.946 0 5.146.35 8 1l1.765.377c1.941.426 3.869.893 5.798 1.373l1.951.438c1.802.484 1.802.484 4.486 1.812.402 2.766.402 2.766-1 5-1.743-.555-1.743-.555-3.832-1.457-2.124-.818-2.124-.818-4.168-.543-2.17 3.776-2.84 8.079-3.687 12.313-.378 1.79-.767 3.576-1.183 5.359a196 196 0 0 0-1.047 4.888C314 78 314 78 311.453 79.04L309 79c-1.247-3.74-.549-5.006.715-8.691q.541-1.68 1.076-3.362c.571-1.767 1.153-3.527 1.767-5.28 1.825-5.213 1.825-5.213 2.442-10.667-2.13-1.415-3.7-1.521-6.24-1.61L307 49c.043-2.03.043-2.03 1-4"/><path fill="#fcfcfd" d="M417 110c4.17 3.069 7.273 6.479 10.438 10.563l1.427 1.748 1.319 1.693 1.204 1.526L432 127c-.761 1.726-.761 1.726-2 3-2.493-.779-3.693-1.463-5-3.75l-1-1.25c-3.63 1.372-6.438 3.848-9.375 6.313l-1.473 1.21c-2.07 1.706-4.096 3.425-6.062 5.25-1.527 1.415-1.527 1.415-4.09 3.227-2.375-.5-2.375-.5-4-2 0-3 0-3 1.513-4.578l2.1-1.672 2.283-1.844 2.416-1.906q2.34-1.873 4.676-3.75l2.11-1.672L416 122c.618-.512 1.235-1.024 1.872-1.55L419 119a1049 1049 0 0 0-4-5c.75-2.312.75-2.312 2-4"/><path fill="#fbfcfd" d="M79 129c5.932 1.587 10.527 6.137 15.205 9.92l2.08 1.623 1.871 1.5c1.822 1.165 1.822 1.165 4.006.7 2.26-.914 2.728-1.736 3.838-3.868.984-1.629.984-1.629 2-2.875 2.25-.062 2.25-.062 4 1 0 5.12-3.263 8.943-6.465 12.785C103 152 103 152 100.996 151.871c-1.987-1.365-3.701-2.882-5.448-4.538-1.876-1.616-3.865-2.945-5.93-4.31-.78-.517-1.558-1.035-2.36-1.568q-2.375-1.575-4.758-3.137l-2.195-1.513-2-1.345L77 134c.234-2.145.455-3.455 2-5"/><path fill="#0050a3" d="M250 158c.372 2.37.372 2.37.363 5.652l.002 1.742q-.004 1.83-.029 3.66c-.023 1.872-.02 3.743-.014 5.616-.031 6.684-.031 6.684-.322 9.33-2.845 1.422-4.87 1.428-8 1-.76-2.263-.76-2.263-.762-5.398l-.01-3.391.045-1.782c.04-1.791.02-3.575-.005-5.367.063-6.518.063-6.518.732-9.062 2.881-1.656 4.674-2 8-2"/><path fill="#07529f" d="M270 153c.673 3.47.557 6.988.556 10.516.006 1.78.06 3.555.118 5.334.043 8.346.043 8.346-1.98 10.612C266.497 180.6 264.466 181 262 181c-.474-3.645-.414-7.325-.426-10.999a268 268 0 0 0-.111-5.583q-.015-1.768-.022-3.535l-.04-3.27L262 155c2.877-1.676 4.668-2 8-2"/><path fill="#044da1" d="M96 383h1c.145 1.454.145 1.454.174 3.517l.04 2.327.032 2.547.1 5.277q.071 4.184.13 8.368c.04 2.68.092 5.361.145 8.042l.026 2.523c.086 4.031.244 6.863 2.353 10.399.113 2.984.047 5.889-.078 8.867-.093 3.603.116 6.067 2.078 9.133-3.432-2.249-5.31-4.244-7-8-.17-3.135.125-6.193.438-9.312q.23-2.463.433-4.926l.217-2.189L96 418h-2c-1.108-5.308-1.183-10.593-1.187-16l-.038-2.328C92.763 394.715 93.42 390.7 95 386z"/><path fill="#fafbfd" d="M220.986 40.675 223 41c.805 1.753.805 1.753 1.23 4.207l.495 2.704.463 2.901.495 2.906c.46 2.758.89 5.519 1.317 8.282l.35 2.058c1.153 6.775 1.153 6.775.65 8.942-2.427.962-2.427.962-5 1-1.027-2.286-1.027-2.286-1.582-5.633l-.315-1.784c-.329-1.9-.622-3.803-.915-5.708q-.324-1.894-.655-3.79C217.747 46.566 217.747 46.566 218 42c1-1 1-1 2.986-1.325"/><path fill="#fcfcfd" d="M435 134c2.875 1.375 2.875 1.375 4 4a45.5 45.5 0 0 1-5 4l-2.448 1.755a1405 1405 0 0 1-8.177 5.558l-1.451 1a471 471 0 0 1-4.213 2.863l-2.522 1.716L413 156l-3-1c-.894-1.9-.894-1.9-1-4 1.304-1.369 1.304-1.369 3.305-2.586l2.196-1.375 2.374-1.414q2.363-1.45 4.723-2.902l2.309-1.406a71 71 0 0 0 5.09-3.508c3.896-2.938 3.896-2.938 6.003-3.809"/><path fill="#fbfcfd" d="M386 82c2.352.398 2.352.398 4 2-.396 3.116-1.538 5-3.512 7.39l-1.539 1.892-1.637 1.968c-3.967 4.806-7.727 9.554-10.933 14.918L371 111c-2.914-1.484-2.914-1.484-5-4 1.224-2.323 2.256-3.602 4.063-5.437q1.447-1.576 2.886-3.16l1.533-1.665c1.541-1.764 2.92-3.583 4.288-5.484l1.325-1.836q1.269-1.777 2.503-3.58c1.175-1.611 1.175-1.611 3.402-3.838"/><path fill="#fcfcfd" d="M94 110c5.008.812 8.439 4.919 11.938 8.313q1.792 1.715 3.59 3.425c.575.552 1.15 1.104 1.744 1.672 1.673 1.54 3.404 2.948 5.189 4.356L119 130c-.312 2.438-.312 2.438-2 4-4.63-1.194-7.47-3.967-10.812-7.187q-1.574-1.495-3.153-2.985l-1.55-1.467c-2.653-2.431-5.498-4.637-8.352-6.826L92 114c.492-2.316.492-2.316 2-4"/><path fill="#054ea0" d="M229 167c.376 3.173.372 6.37.438 9.563l.138 2.771c.077 4.454.077 4.454-.576 6.666-2.883.133-2.883.133-6-1l-2.312-.687C219 183 219 183 218 180.25c0-4.072 1.27-6.374 4-9.25 4.963-4 4.963-4 7-4"/><path fill="#034da1" d="m344.765 137.751 2.853.062 3.062.113 3.168.08c3.343.088 6.685.197 10.027.307q3.365.095 6.73.185 7.514.203 15.027.45c2.005.044 3.986.014 5.99-.053L394 139l1 2c-4.752 1.216-9.385 1.144-14.254 1.133l-2.717.003q-2.846 0-5.691-.006-4.299-.005-8.598.007c-9.297.003-18.492-.078-27.74-1.137 3.012-2.627 4.78-3.367 8.765-3.249"/><path fill="#0151a2" d="M283 153c3.643-.208 5.46.626 8.438 2.688C293 158 293 158 293.188 160.813c-1.648 4.42-4.489 7.3-8.188 10.187h-2c-.575-2.977-.464-6.037-.5-9.062l-.125-2.627c-.053-4.2-.053-4.2.625-6.311"/><path fill="#054ca1" d="M409 138.563c2.727.039 2.727.039 5 .437 1.375 2.438 1.375 2.438 2 5 2.041.887 2.041.887 4 1-2.316 1.765-2.913 2-6 2l-1-2c-2.042-.246-2.042-.246-4.473-.125-.899.015-1.798.03-2.724.047l-2.865.078q-2.799.076-5.598.125l-2.52.07L393 145v-2c1.898-.562 1.898-.562 4.375-1 4.63-.823 6.829-3.319 11.625-3.437"/><path fill="#2f6088" d="M250 158c.356 2.387.356 2.387.328 5.688l-.006 1.748q-.01 1.836-.04 3.672a422 422 0 0 0-.048 5.65c-.05 6.518-.05 6.518-.234 9.242h-1a58 58 0 0 1-.098-4.156l.01-2.598.025-2.746.014-2.746q.019-3.377.049-6.754l-2.375 2C244 169 244 169 242 169c-.593-3.034-.555-5.964 0-9 2.87-1.939 4.559-2 8-2"/><path fill="#1c459c" d="M55.766 189.621c2.051.138 3.44.364 5.234 1.379.542 3.186.45 5.1-1 8-6.47-.47-6.47-.47-9-3 1.681-5.717 1.681-5.717 4.766-6.379"/><path fill="#044da1" d="M293.438 143.938 296 145c-.375 3-.375 3-2 6-3.365 1.87-7.369.628-11 0 1.026-2.704 1.973-3.978 4.25-5.812C290 144 290 144 293.438 143.938"/><path fill="#094da1" d="m392.25 137.188 1.862.053c3.194.205 4.583.434 6.81 2.81L402 142c-2.875.125-2.875.125-6 0l-2-2c-1.743-.243-1.743-.243-3.695-.125l-2.168.047-2.262.078c-2.65.09-5.22.097-7.875 0v-2c4.72-1.236 9.403-1.045 14.25-.812"/><path fill="#074ca1" d="M94 418h2c.195 1.62.195 1.62.125 3.867-.015.803-.03 1.606-.047 2.434l-.156 5.125-.047 2.441-.07 2.254c.021 2.125.021 2.125 2.195 3.879l-1 3c-2.182-1.65-3.556-2.734-5-5-.39-3.188.066-6.154.563-9.312l.306-2.534c.6-4.446.6-4.446 1.131-6.154"/><path fill="#024da1" d="M118 300c1 2 1 2 .61 3.54l-.72 1.796-.788 1.976-.852 2.063-.805 2.04c-1.456 3.59-2.96 6.568-5.445 9.585a88 88 0 0 0-2 4c-1.173-3.52-.842-3.976.688-7.187l1.132-2.403L111 313l1.055-2.191c1.818-3.714 3.751-7.3 5.945-10.809"/><path fill="#2f55a4" d="M342 66c.074 1.999.083 4 .063 6l-.028 3.375L342 78c-2.784-.788-5.456-1.606-8-3 .266-2.658 5.074-9 8-9"/><path fill="#054ca1" d="m430 144 1 2 2 .313 2 .687c1.063 2.5 1.063 2.5 1 5-2.312 1.063-2.312 1.063-5 1-1.062-1.812-1.062-1.812-2-4-2.034-1.268-2.034-1.268-4-2 2.438-1.625 2.438-1.625 5-3"/><path fill="#0359a9" d="M443 191c2.406-.293 2.406-.293 5.5-.187l3.094.082L454 191c-2.866 2.946-5.628 5.627-9 8-1.257-2.906-2-4.796-2-8"/><path fill="#084ba0" d="M323.813 135.625 327 136c-2.773 3.278-4.466 5.23-8.812 5.813L315 142c4.154-6.432 4.154-6.432 8.813-6.375"/><path fill="#084ba0" d="M392 137c-6.238 1.134-12.677 1.613-19 1v-2c5.566-1.57 14.256-2.693 19 1"/><path fill="#024da1" d="M98 423c2.314 2.468 2.162 4.786 2.078 8.045l-.156 3.773c-.093 3.619.103 6.104 2.078 9.182-2.257-1.165-3.725-2.145-4.523-4.629-.824-5.511-.209-10.879.523-16.371"/><path fill="#044da1" d="M102 357c-.236 6.125-.236 6.125-2.184 8.355-1.379 1.082-1.379 1.082-3.816 2.645-.6-5.159-.6-5.159 1.078-7.512C100.556 357 100.556 357 102 357"/><path fill="#044ca1" d="M96 422h2c.266 2.266.266 2.266.25 5.25l.016 2.953c-.264 2.778-.844 4.427-2.266 6.797l-1-1c.038-2.375.144-4.697.313-7.062l.107-2.01c.114-1.65.337-3.292.58-4.928"/><path fill="#044da1" d="M130 270c2.375.375 2.375.375 4 2-1.125 2.625-1.125 2.625-3 5h-2l-1 2c-1.192-2.926-1.05-3.878.188-6.875z"/><path fill="#064ca0" d="m296 145-1 2c-2.504.633-2.504.633-5.562 1.125l-3.067.508L284 149c2.6-5.198 6.89-5.307 12-4"/><path fill="#044ca1" d="m394 139 1 2c-4.192 1.048-8.694 1.63-13 1v-2c3.996-.951 7.903-1.286 12-1"/><path fill="#0f4e9c" d="M249 158v3c-1.531.95-1.531.95-3.5 1.688-.65.25-1.3.502-1.969.761L242 164c-.312-1.875-.312-1.875 0-4 2.43-1.28 4.243-2 7-2"/><path fill="#034da1" d="M300 145c2.125-.25 2.125-.25 4 0l-1 3c-2.562.688-2.562.688-5 1 .75-2 .75-2 2-4"/><path fill="#054da1" d="m413 143 7 1c-1.312 1.5-1.312 1.5-3 3h-3c-.687-2-.687-2-1-4"/><path fill="#024ea1" d="m294 149-1 3c-1.629.074-1.629.074-3.562-.312l-1.942-.364L286 151c2.82-1.611 4.749-2.232 8-2"/><path fill="#0b509c" d="M94 434c2.063 1.813 2.063 1.813 4 4l-1 3c-1.5-1.25-1.5-1.25-3-3-.187-2.187-.187-2.187 0-4"/><path fill="#014da2" d="m132 271 2 2c-1.25 2.125-1.25 2.125-3 4h-2c1.875-4.875 1.875-4.875 3-6"/><path fill="#074ca1" d="M97 351c1.188 1.875 1.188 1.875 2 4-1.375 1.25-1.375 1.25-3 2a100 100 0 0 1 0-5z"/><path fill="#034da1" d="m444 153 2 1Zm-2 1c2.063.938 2.063.938 4 2l-3 1-2-2z"/></svg>